<?xml version="1.0" encoding="UTF-8"?>
<svg width="82px" height="11px" viewBox="0 0 82 11" version="1.1" xmlns="http://www.w3.org/2000/svg" xmlns:xlink="http://www.w3.org/1999/xlink">
    <!-- Generator: Sketch 51.2 (57519) - http://www.bohemiancoding.com/sketch -->
    <title>Ambassador Copy</title>
    <desc>Created with Sketch.</desc>
    <defs></defs>
    <g id="Page-1" stroke="none" stroke-width="1" fill="none" fill-rule="evenodd">
        <g id="Desktop-HD" transform="translate(-679.000000, -161.000000)" fill="#FFFFFF">
            <path d="M688.3645,171 L686.8565,171 L685.9985,168.972 L681.7605,168.972 L680.9025,171 L679.3945,171 L683.2295,162.29 L684.5295,162.29 L688.3645,171 Z M685.4525,167.698 L683.8795,163.993 L682.3065,167.698 L685.4525,167.698 Z M697.4255,164.37 C698.7645,164.37 699.8695,165.371 699.8695,166.892 L699.8695,171 L698.5305,171 L698.5305,167.165 C698.5305,166.216 697.9065,165.618 697.0745,165.618 C696.0215,165.618 695.3325,166.359 695.3325,167.802 L695.3325,171 L693.9805,171 L693.9805,167.165 C693.9805,166.216 693.3565,165.618 692.5245,165.618 C691.4845,165.618 690.8085,166.359 690.8085,167.802 L690.8085,171 L689.4565,171 L689.4565,164.552 L690.8085,164.552 L690.8085,165.28 C691.2765,164.708 691.9525,164.37 692.8755,164.37 C693.7985,164.37 694.6045,164.799 695.0205,165.553 C695.5405,164.825 696.3595,164.37 697.4255,164.37 Z M705.4725,164.37 C707.1625,164.37 708.6705,165.748 708.6705,167.776 C708.6705,169.817 707.1625,171.182 705.4725,171.182 C704.4975,171.182 703.6915,170.844 703.1325,170.259 L703.1325,171 L701.7805,171 L701.7805,161.64 L703.1325,161.64 L703.1325,165.293 C703.6915,164.708 704.4975,164.37 705.4725,164.37 Z M705.2515,169.986 C706.4345,169.986 707.3575,169.141 707.3575,167.776 C707.3575,166.424 706.4345,165.566 705.2515,165.566 C704.1855,165.566 703.1325,166.424 703.1325,167.776 C703.1325,169.141 704.1855,169.986 705.2515,169.986 Z M716.4705,164.552 L716.4705,171 L715.1185,171 L715.1185,170.259 C714.5595,170.844 713.7535,171.182 712.7785,171.182 C711.0885,171.182 709.5805,169.817 709.5805,167.776 C709.5805,165.748 711.0885,164.37 712.7785,164.37 C713.7535,164.37 714.5595,164.708 715.1185,165.293 L715.1185,164.552 L716.4705,164.552 Z M712.9995,169.986 C714.0655,169.986 715.1185,169.141 715.1185,167.776 C715.1185,166.424 714.0655,165.566 712.9995,165.566 C711.8165,165.566 710.8935,166.424 710.8935,167.776 C710.8935,169.141 711.8165,169.986 712.9995,169.986 Z M717.9785,169.271 L719.3305,168.985 C719.4215,169.752 720.0975,170.077 720.9425,170.077 C721.7225,170.077 722.2165,169.726 722.2165,169.219 C722.2165,168.829 721.9435,168.582 721.3455,168.452 L719.9415,168.166 C718.8235,167.919 718.1865,167.321 718.1865,166.411 C718.1865,165.215 719.1875,164.37 720.7345,164.37 C722.2165,164.37 723.2175,165.15 723.4515,166.229 L722.1645,166.502 C722.0605,165.878 721.5275,165.449 720.6955,165.449 C719.9025,165.449 719.5515,165.839 719.5515,166.294 C719.5515,166.658 719.7595,166.892 720.3315,167.022 L721.8655,167.36 C722.9055,167.581 723.5425,168.192 723.5425,169.102 C723.5425,170.454 722.4375,171.182 720.8255,171.182 C719.3825,171.182 718.1475,170.571 717.9785,169.271 Z M724.5305,169.271 L725.8825,168.985 C725.9735,169.752 726.6495,170.077 727.4945,170.077 C728.2745,170.077 728.7685,169.726 728.7685,169.219 C728.7685,168.829 728.4955,168.582 727.8975,168.452 L726.4935,168.166 C725.3755,167.919 724.7385,167.321 724.7385,166.411 C724.7385,165.215 725.7395,164.37 727.2865,164.37 C728.7685,164.37 729.7695,165.15 730.0035,166.229 L728.7165,166.502 C728.6125,165.878 728.0795,165.449 727.2475,165.449 C726.4545,165.449 726.1035,165.839 726.1035,166.294 C726.1035,166.658 726.3115,166.892 726.8835,167.022 L728.4175,167.36 C729.4575,167.581 730.0945,168.192 730.0945,169.102 C730.0945,170.454 728.9895,171.182 727.3775,171.182 C725.9345,171.182 724.6995,170.571 724.5305,169.271 Z M737.9335,164.552 L737.9335,171 L736.5815,171 L736.5815,170.259 C736.0225,170.844 735.2165,171.182 734.2415,171.182 C732.5515,171.182 731.0435,169.817 731.0435,167.776 C731.0435,165.748 732.5515,164.37 734.2415,164.37 C735.2165,164.37 736.0225,164.708 736.5815,165.293 L736.5815,164.552 L737.9335,164.552 Z M734.4625,169.986 C735.5285,169.986 736.5815,169.141 736.5815,167.776 C736.5815,166.424 735.5285,165.566 734.4625,165.566 C733.2795,165.566 732.3565,166.424 732.3565,167.776 C732.3565,169.141 733.2795,169.986 734.4625,169.986 Z M746.3315,161.64 L746.3315,171 L744.9665,171 L744.9665,170.272 C744.3945,170.844 743.6015,171.182 742.6265,171.182 C740.9495,171.182 739.4285,169.817 739.4285,167.776 C739.4285,165.748 740.9495,164.37 742.6265,164.37 C743.6015,164.37 744.3945,164.708 744.9665,165.293 L744.9665,161.64 L746.3315,161.64 Z M742.8475,169.986 C743.9265,169.986 744.9665,169.141 744.9665,167.776 C744.9665,166.424 743.9265,165.566 742.8475,165.566 C741.6775,165.566 740.7545,166.424 740.7545,167.776 C740.7545,169.141 741.6775,169.986 742.8475,169.986 Z M751.2845,164.409 C753.1825,164.409 754.7295,165.774 754.7295,167.776 C754.7295,169.778 753.1825,171.156 751.2845,171.156 C749.3735,171.156 747.8135,169.778 747.8135,167.776 C747.8135,165.774 749.3735,164.409 751.2845,164.409 Z M751.2845,169.986 C752.3895,169.986 753.4165,169.115 753.4165,167.776 C753.4165,166.437 752.3895,165.566 751.2845,165.566 C750.1535,165.566 749.1395,166.437 749.1395,167.776 C749.1395,169.115 750.1535,169.986 751.2845,169.986 Z M760.0465,164.474 C760.2025,164.474 760.3325,164.474 760.5015,164.526 L760.4105,165.826 C760.3065,165.813 760.1505,165.813 760.0335,165.813 C758.3955,165.813 757.5895,166.957 757.5895,168.725 L757.5895,171 L756.2375,171 L756.2375,164.552 L757.5895,164.552 L757.5895,165.93 C758.1095,165.072 758.9285,164.474 760.0465,164.474 Z" id="Ambassador-Copy"></path>
        </g>
    </g>
</svg>